<svg width="28" height="17" xmlns="http://www.w3.org/2000/svg" xmlns:xlink="http://www.w3.org/1999/xlink" xmlns:svgjs="http://svgjs.com/svgjs" viewBox="0 0.206 28 16.588"><svg xmlns="http://www.w3.org/2000/svg" width="28" height="17" viewBox="2 1.999 27.007 16" fill="#4da7ff"><path fill="#4DA7FF" paint-order="stroke fill markers" fill-rule="evenodd" d="M26.39 4.264h-6.768v-1.6h6.768v1.6zm-11.273 6.562c.437.645.655 1.426.655 2.345 0 .948-.246 1.8-.746 2.552a4.512 4.512 0 0 1-1.189 1.257c-.535.392-1.168.66-1.896.803-.73.144-1.522.217-2.373.217H2V2h8.115c2.046.031 3.496.596 4.353 1.704.514.68.768 1.495.768 2.443 0 .978-.257 1.761-.776 2.356-.289.333-.715.636-1.28.91.855.298 1.504.767 1.937 1.413zM5.875 8.307h3.556c.731 0 1.322-.132 1.777-.396.455-.264.681-.733.681-1.407 0-.744-.3-1.238-.902-1.476-.518-.165-1.18-.25-1.984-.25H5.875v3.53zm6.357 4.635c0-.831-.357-1.406-1.07-1.714-.397-.175-.96-.265-1.68-.272H5.875v4.265h3.552c.729 0 1.294-.091 1.701-.281.735-.349 1.104-1.012 1.104-1.998zM28.9 10.339c.082.523.119 1.283.104 2.275H20.24c.048 1.152.466 1.958 1.258 2.419.478.289 1.057.43 1.735.43.715 0 1.298-.172 1.746-.526.245-.188.46-.452.647-.787h3.212c-.084.681-.47 1.37-1.166 2.072-1.077 1.114-2.587 1.673-4.527 1.673-1.602 0-3.014-.47-4.24-1.41-1.222-.942-1.836-2.47-1.836-4.591 0-1.989.551-3.51 1.657-4.57 1.11-1.06 2.541-1.589 4.306-1.589 1.046 0 1.99.178 2.83.536a4.823 4.823 0 0 1 2.078 1.697c.494.682.812 1.472.96 2.371zm-3.162.299c-.059-.797-.338-1.4-.84-1.812-.5-.413-1.122-.62-1.866-.62-.81 0-1.434.222-1.878.657-.447.435-.725 1.026-.839 1.775h5.423z"/></svg></svg>