<svg width="23" height="22" xmlns="http://www.w3.org/2000/svg" xmlns:xlink="http://www.w3.org/1999/xlink" xmlns:svgjs="http://svgjs.com/svgjs" viewBox="0.504 0 21.992 22"><svg xmlns="http://www.w3.org/2000/svg" width="23" height="22" viewBox="1.965 1.964 21.028 21.035" fill="#fff"><path fill="#FFFFFF" paint-order="stroke fill markers" fill-rule="evenodd" d="M3.131 23c.299 0 .597-.115.825-.343l3.107-3.107a5.789 5.789 0 0 0 3.216.966 5.795 5.795 0 0 0 4.123-1.707l.001-.002 2.198-2.198.002-.002 2.2-2.2v-.002a5.798 5.798 0 0 0 1.708-4.124 5.793 5.793 0 0 0-.966-3.217l3.106-3.108a1.167 1.167 0 0 0-1.65-1.65l-3.106 3.108a5.789 5.789 0 0 0-3.217-.966 5.795 5.795 0 0 0-4.122 1.706l-.002.002-2.198 2.2h-.001l-2.199 2.2a5.845 5.845 0 0 0-.742 7.342l-3.107 3.11a1.167 1.167 0 0 0 .824 1.991zm4.674-10.794l2.199-2.199 2.2-2.2v-.001a3.478 3.478 0 0 1 2.474-1.025 3.49 3.49 0 0 1 1.51.34l-1.784 1.785a1.167 1.167 0 0 0 1.65 1.65l1.783-1.784c.223.465.34.978.34 1.509 0 .935-.363 1.815-1.024 2.476l-2.198 2.198-.002.001-2.198 2.2h-.001a3.473 3.473 0 0 1-2.475 1.026 3.477 3.477 0 0 1-1.509-.34l1.784-1.785a1.167 1.167 0 0 0-1.65-1.65L7.123 16.19a3.508 3.508 0 0 1 .683-3.984z"/></svg></svg>