<svg width="21" height="21" xmlns="http://www.w3.org/2000/svg" xmlns:xlink="http://www.w3.org/1999/xlink" xmlns:svgjs="http://svgjs.com/svgjs"><svg xmlns="http://www.w3.org/2000/svg" width="21" height="21" viewBox="2 2 20 20" fill="#4da7ff"><path fill="#4DA7FF" paint-order="stroke fill markers" fill-rule="evenodd" d="M19.438 5.324l-.14-.153A9.974 9.974 0 0 0 12 2a9.952 9.952 0 0 0-3.27.549l-.103.036a10.033 10.033 0 0 0-6.484 7.73l-.003.01-.005.034a9.952 9.952 0 0 0 2.218 8.077 9.983 9.983 0 0 0 11.033 2.973 10.034 10.034 0 0 0 6.444-7.569c.111-.596.17-1.212.17-1.84a9.96 9.96 0 0 0-2.562-6.676zM12 3.999a7.97 7.97 0 0 1 5.353 2.06c-.993 1.362-2.383 2.257-3.904 2.834a27.249 27.249 0 0 0-.75-1.607 23.665 23.665 0 0 0-1.934-3.191A8.042 8.042 0 0 1 12 3.999zm-3.284.706c.596.746 1.728 2.329 2.796 4.752-2.805.602-5.682.402-7.17.226a8.04 8.04 0 0 1 4.374-4.978zM4 11.999c0-.113.003-.226.008-.339.797.1 1.978.208 3.356.208.667 0 1.38-.025 2.118-.089a19.277 19.277 0 0 0 2.778-.439c.19.538.374 1.106.546 1.705-.9.261-1.831.589-2.79.982a34.695 34.695 0 0 0-4.697 2.367A7.953 7.953 0 0 1 4 12zm8 8a7.97 7.97 0 0 1-5.356-2.062c1.334-.785 3.84-2.121 6.652-2.948a33.23 33.23 0 0 1 .67 4.766c-.629.16-1.288.245-1.966.245zm3.912-1.023c-.14-1.613-.378-3.1-.675-4.456 1.472-.275 2.973-.356 4.39-.107a8.04 8.04 0 0 1-3.715 4.563zm4.075-6.532c-1.587-.282-3.338-.239-5.239.128a31.508 31.508 0 0 0-.576-1.817c1.877-.718 3.396-1.775 4.51-3.147a7.951 7.951 0 0 1 1.305 4.836z"/></svg></svg>