<svg width="12" height="21" xmlns="http://www.w3.org/2000/svg" xmlns:xlink="http://www.w3.org/1999/xlink" xmlns:svgjs="http://svgjs.com/svgjs" viewBox="0.226 0 11.549 21"><svg xmlns="http://www.w3.org/2000/svg" width="12" height="21" viewBox="2 1.995 11 20.001" fill="#4da7ff"><path fill="#4DA7FF" paint-order="stroke fill markers" fill-rule="evenodd" d="M12.585 2l-2.638-.005c-2.964 0-4.88 1.933-4.88 4.923v2.27H2.415A.412.412 0 0 0 2 9.596v3.288a.41.41 0 0 0 .415.407h2.652v8.298c0 .225.186.407.415.407h3.461c.23 0 .415-.182.415-.407V13.29h3.102a.41.41 0 0 0 .415-.407V9.596a.404.404 0 0 0-.12-.288.42.42 0 0 0-.294-.12H9.358V7.264c0-.925.225-1.394 1.45-1.394h1.777a.41.41 0 0 0 .414-.409V2.408a.411.411 0 0 0-.414-.407z"/></svg></svg>