<svg width="32" height="21" xmlns="http://www.w3.org/2000/svg" xmlns:xlink="http://www.w3.org/1999/xlink" xmlns:svgjs="http://svgjs.com/svgjs" viewBox="0 0.165 32 20.67"><svg xmlns="http://www.w3.org/2000/svg" width="32" height="21" viewBox="4.028 2 30.953 19.994" fill="#4da7ff"><path fill="#4DA7FF" paint-order="stroke fill markers" fill-rule="evenodd" d="M13.966 10.574h9.34c.073 4.803-1.098 8.04-4.052 9.919-5.401 3.436-11.537.448-13.942-3.702-3.508-6.056.802-12.455 5.357-14.25 3.355-1.324 8.116-.044 9.752 1.955v.14L18.018 7.08c-1.098-.461-2.021-1.076-3.434-1.327C10.336 5 6.849 9.617 8.128 13.857c1.64 5.436 10.524 6.142 11.4.14l-5.562-.07v-3.353zM29.349 7.71h2.816v2.864h2.816v2.794l-2.816.07v2.794H29.35v-2.795l-2.815-.07v-2.793h2.815V7.71z"/></svg></svg>