<svg width="23" height="15" xmlns="http://www.w3.org/2000/svg" xmlns:xlink="http://www.w3.org/1999/xlink" xmlns:svgjs="http://svgjs.com/svgjs" viewBox="0 0.197 23 14.606"><svg xmlns="http://www.w3.org/2000/svg" width="23" height="15" viewBox="3.458 2 21.498 13.652" fill="#464646"><path fill="#464646" paint-order="stroke fill markers" fill-rule="evenodd" d="M10.36 7.855h6.487c.05 3.28-.763 5.49-2.814 6.773-3.752 2.346-8.013.305-9.683-2.528-2.437-4.135.556-8.505 3.72-9.73 2.33-.904 5.637-.03 6.773 1.335V3.8l-1.67 1.67c-.762-.316-1.403-.736-2.384-.907-2.95-.514-5.372 2.638-4.484 5.533 1.14 3.712 7.31 4.194 7.918.096-1.287-.017-2.576-.032-3.863-.048v-2.29zm10.684-1.956H23v1.956h1.956v1.907L23 9.81v1.908h-1.956V9.81l-1.955-.048V7.855h1.955V5.899z"/></svg></svg>