<svg width="25" height="22" xmlns="http://www.w3.org/2000/svg" xmlns:xlink="http://www.w3.org/1999/xlink" xmlns:svgjs="http://svgjs.com/svgjs" viewBox="0 0.061 25 21.878"><svg xmlns="http://www.w3.org/2000/svg" width="25" height="22" viewBox="2 1.997 24 21.003" fill="#8799a3"><path fill=" #8799A3" paint-order="stroke fill markers" fill-rule="evenodd" d="M24.299 3.693c-1.134-1.13-2.7-1.696-4.701-1.696-.554 0-1.119.098-1.694.293a6.773 6.773 0 0 0-1.607.794 17.34 17.34 0 0 0-1.28.936c-.356.292-.696.602-1.017.93a12.43 12.43 0 0 0-1.018-.93 17.364 17.364 0 0 0-1.28-.936 6.788 6.788 0 0 0-1.606-.794 5.243 5.243 0 0 0-1.694-.293c-2 0-3.567.566-4.701 1.696C2.567 4.823 2 6.39 2 8.397c0 .61.105 1.239.315 1.886.21.647.448 1.199.716 1.655.268.455.572.9.91 1.333.34.432.588.732.744.896.156.163.28.281.368.355l8.358 8.231c.16.165.357.247.589.247a.792.792 0 0 0 .59-.247l8.343-8.204C24.978 12.462 26 10.41 26 8.397c0-2.006-.567-3.574-1.701-4.704zm-2.531 9.57L14 20.908 6.219 13.25c-1.67-1.704-2.505-3.323-2.505-4.853 0-.739.096-1.39.288-1.956.192-.565.438-1.014.737-1.347A3.54 3.54 0 0 1 5.83 4.28c.429-.21.849-.35 1.26-.424.41-.072.847-.108 1.312-.108.464 0 .964.116 1.5.348a6.813 6.813 0 0 1 1.48.875c.45.351.837.679 1.158.984.321.306.59.586.804.842.16.2.38.3.656.3.277 0 .495-.1.656-.3.214-.256.482-.536.804-.842.321-.305.707-.633 1.158-.984.451-.35.944-.643 1.48-.875.536-.232 1.036-.348 1.5-.348.464 0 .902.036 1.313.108.41.074.83.215 1.259.424.428.21.792.481 1.091.814.3.333.545.782.737 1.347.191.565.287 1.217.287 1.956 0 1.53-.839 3.153-2.517 4.867z"/></svg></svg>