<svg width="21" height="21" xmlns="http://www.w3.org/2000/svg" xmlns:xlink="http://www.w3.org/1999/xlink" xmlns:svgjs="http://svgjs.com/svgjs"><svg xmlns="http://www.w3.org/2000/svg" width="21" height="21" viewBox="2 1.999 20 20" fill="#4da7ff"><path fill="#4DA7FF" paint-order="stroke fill markers" fill-rule="evenodd" d="M16.48 2H7.52A5.526 5.526 0 0 0 2 7.52v8.96A5.525 5.525 0 0 0 7.52 22h8.96A5.525 5.525 0 0 0 22 16.48V7.52A5.526 5.526 0 0 0 16.48 2zm3.745 14.48a3.75 3.75 0 0 1-3.744 3.745H7.519a3.75 3.75 0 0 1-3.745-3.744V7.519A3.749 3.749 0 0 1 7.52 3.774h8.961a3.749 3.749 0 0 1 3.745 3.745v8.962zM12 6.847A5.16 5.16 0 0 0 6.846 12 5.16 5.16 0 0 0 12 17.153 5.16 5.16 0 0 0 17.153 12 5.16 5.16 0 0 0 12 6.846zm0 8.533a3.383 3.383 0 0 1-3.38-3.38A3.383 3.383 0 0 1 12 8.621a3.383 3.383 0 0 1 3.379 3.378 3.383 3.383 0 0 1-3.38 3.38zm5.37-10.037c-.342 0-.678.138-.92.38a1.308 1.308 0 0 0-.382.921c0 .342.14.678.382.92s.578.381.92.381c.343 0 .677-.14.92-.38a1.307 1.307 0 0 0 0-1.841 1.308 1.308 0 0 0-.92-.381z"/></svg></svg>