<svg width="19" height="31" xmlns="http://www.w3.org/2000/svg" xmlns:xlink="http://www.w3.org/1999/xlink" xmlns:svgjs="http://svgjs.com/svgjs" viewBox="0.2 0 18.6 31"><svg xmlns="http://www.w3.org/2000/svg" width="19" height="31" viewBox="2 1.999 18 30" fill="#fff"><path fill="#4D4D4D" paint-order="stroke fill markers" fill-rule="evenodd" d="M20 5.044c0 .814-.317 1.579-.89 2.154L9.335 17l9.774 9.8c.574.575.89 1.34.89 2.154a3.03 3.03 0 0 1-.89 2.155 3.035 3.035 0 0 1-4.296 0L2.89 19.153A3.026 3.026 0 0 1 2 17c0-.813.316-1.579.89-2.154L14.813 2.89a3.01 3.01 0 0 1 2.149-.892c.81 0 1.574.316 2.148.892.573.575.89 1.34.89 2.153zM7.425 17L18.155 6.24c.638-.64.638-1.753 0-2.393a1.675 1.675 0 0 0-1.193-.495c-.45 0-.875.175-1.194.495L3.815 15.833c-.609.64-.599 1.733.03 2.362L15.767 30.15c.658.66 1.73.66 2.387 0 .638-.639.638-1.754 0-2.393L7.425 16.999z"/></svg></svg>