<svg width="16" height="15" xmlns="http://www.w3.org/2000/svg" xmlns:xlink="http://www.w3.org/1999/xlink" xmlns:svgjs="http://svgjs.com/svgjs" viewBox="0 0.05 16 14.901"><svg xmlns="http://www.w3.org/2000/svg" width="16" height="15" viewBox="1.99 1.004 15.019 13.987" fill="#464646"><path fill="#464646" paint-order="stroke fill markers" fill-rule="evenodd" d="M3.821 1.004c.468 0 .834.154 1.1.462.266.308.409.695.428 1.16 0 .458-.15.846-.45 1.16-.302.313-.713.47-1.234.47h-.018c-.508 0-.91-.157-1.21-.47a1.629 1.629 0 0 1-.447-1.16c0-.472.163-.86.493-1.165.33-.304.776-.457 1.338-.457zm-1.634 4.54h3.211v9.446h-3.21V5.545zM17.01 9.576v5.415H13.8V9.939c0-.643-.126-1.158-.377-1.55-.25-.389-.667-.582-1.257-.582-.45 0-.81.119-1.079.36-.269.237-.465.5-.582.79-.04.104-.063.22-.076.349a4.315 4.315 0 0 0-.018.407v5.278H7.18c.013-1.599.02-3.065.02-4.394v-1.68-1.524c0-.465-.004-.862-.011-1.19-.004-.327-.01-.546-.01-.658h3.23v1.338l-.016.038h.017v-.038c.1-.165.228-.336.385-.517.158-.18.347-.348.578-.501.228-.155.503-.282.825-.384a3.74 3.74 0 0 1 1.114-.151c.522 0 1.01.084 1.466.25.454.168.844.43 1.176.787.33.355.588.798.777 1.326.186.527.278 1.154.278 1.882z"/></svg></svg>