<svg width="22" height="21" xmlns="http://www.w3.org/2000/svg" xmlns:xlink="http://www.w3.org/1999/xlink" xmlns:svgjs="http://svgjs.com/svgjs" viewBox="0 0.047 22 20.907"><svg xmlns="http://www.w3.org/2000/svg" width="22" height="21" viewBox="1.986 1.005 21.026 19.982" fill="#4da7ff"><path fill="#4DA7FF" paint-order="stroke fill markers" fill-rule="evenodd" d="M4.55 1.005c.654 0 1.167.22 1.54.66.372.44.572.993.598 1.656 0 .656-.209 1.21-.63 1.658-.422.448-.997.673-1.727.673h-.025c-.712 0-1.275-.225-1.695-.673-.414-.448-.625-1.002-.625-1.658 0-.673.228-1.227.69-1.662.46-.436 1.086-.654 1.874-.654zM2.262 7.492h4.496v13.493H2.262V7.492zm20.75 5.757v7.736h-4.494V13.77c0-.918-.176-1.654-.527-2.213-.35-.556-.934-.832-1.76-.832-.63 0-1.134.169-1.51.513-.377.34-.651.715-.816 1.13-.054.15-.087.314-.106.498-.017.18-.025.375-.025.582v7.54H9.25c.02-2.284.03-4.379.03-6.277v-2.4-2.178c0-.665-.006-1.231-.017-1.7-.005-.467-.013-.78-.013-.94h4.523v1.912l-.024.055h.024v-.055c.14-.236.32-.48.539-.738.22-.258.486-.498.809-.717.32-.22.705-.402 1.156-.548.453-.144.97-.216 1.559-.216.731 0 1.414.12 2.052.358a4.18 4.18 0 0 1 1.646 1.124c.463.507.824 1.14 1.088 1.894.261.753.39 1.649.39 2.688z"/></svg></svg>