<svg width="17" height="21" xmlns="http://www.w3.org/2000/svg" xmlns:xlink="http://www.w3.org/1999/xlink" xmlns:svgjs="http://svgjs.com/svgjs" viewBox="0.1 0 16.8 21"><svg xmlns="http://www.w3.org/2000/svg" width="17" height="21" viewBox="1.001 2 15.998 19.998" fill="#4da7ff"><path fill="#4DA7FF" paint-order="stroke fill markers" fill-rule="evenodd" d="M14.925 4.05C13.524 2.728 11.585 2 9.465 2c-3.238 0-5.23 1.304-6.33 2.398-1.356 1.348-2.134 3.138-2.134 4.91 0 2.227.948 3.936 2.535 4.571a.86.86 0 0 0 .319.065c.335 0 .6-.216.692-.561.054-.198.178-.686.232-.899.115-.418.022-.62-.23-.912-.46-.533-.673-1.165-.673-1.986 0-2.44 1.849-5.031 5.275-5.031 2.719 0 4.408 1.518 4.408 3.961 0 1.542-.338 2.971-.952 4.022-.427.73-1.178 1.601-2.33 1.601-.498 0-.945-.2-1.227-.55-.267-.333-.355-.76-.248-1.206.121-.505.287-1.03.447-1.538.291-.929.567-1.806.567-2.505 0-1.197-.749-2-1.863-2-1.416 0-2.525 1.412-2.525 3.216 0 .885.24 1.546.347 1.8-.178.743-1.238 5.157-1.44 5.99-.115.486-.816 4.324.343 4.63 1.303.343 2.467-3.394 2.586-3.817.096-.343.432-1.642.638-2.44.629.594 1.641.997 2.626.997 1.858 0 3.528-.822 4.703-2.313C16.371 12.958 17 10.943 17 8.73c0-1.73-.756-3.436-2.074-4.68z"/></svg></svg>