<svg width="40" height="40" xmlns="http://www.w3.org/2000/svg" xmlns:xlink="http://www.w3.org/1999/xlink" xmlns:svgjs="http://svgjs.com/svgjs" viewBox="0 0.002 40 39.995"><svg xmlns="http://www.w3.org/2000/svg" width="40" height="40" viewBox="1.007 1.009 38.985 38.981" fill="#fff"><path fill="#FFFFFF" paint-order="stroke fill markers" fill-rule="evenodd" d="M26.93 19.737l-8.095-5.885a.976.976 0 0 0-1.55.788v11.766a.971.971 0 0 0 1.55.785l8.095-5.88a.969.969 0 0 0 0-1.575zM20.5 1.009C9.733 1.01 1.007 9.735 1.007 20.502c0 10.764 8.726 19.488 19.493 19.488 10.766 0 19.493-8.724 19.493-19.488C39.993 9.735 31.266 1.01 20.5 1.01zm0 35.727c-8.967 0-16.237-7.265-16.237-16.234 0-8.964 7.27-16.24 16.237-16.24 8.966 0 16.234 7.275 16.234 16.24.003 8.969-7.268 16.234-16.234 16.234z"/></svg></svg>