<svg width="61" height="61" xmlns="http://www.w3.org/2000/svg" xmlns:xlink="http://www.w3.org/1999/xlink" xmlns:svgjs="http://svgjs.com/svgjs" viewBox="0 0.001 61 60.998"><svg xmlns="http://www.w3.org/2000/svg" width="61" height="61" viewBox="2 1.998 60.003 60.001" fill="#ff0"><path fill="#FFFF00" paint-order="stroke fill markers" fill-rule="evenodd" d="M60.556 4.539l-.299-.793-.791-.297a22.421 22.421 0 0 0-7.957-1.45 22.342 22.342 0 0 0-15.9 6.584l-6.021 6.021-13.458.653L4.867 26.519l9.711 3.094-3.591 3.59 2.098 2.097-4.648 7.124 13.139 13.138 7.124-4.647 2.098 2.097 3.59-3.591 3.094 9.71L48.746 47.87l.652-13.456 6.022-6.02A22.535 22.535 0 0 0 60.556 4.54zm-48.69 20.279l5.89-5.89 7.89-.383-8.087 8.087-5.694-1.814zm10.21 25.946l-8.841-8.84 2.556-3.917 10.202 10.2-3.918 2.557zm22.999-4.52l-5.891 5.89-1.814-5.694 8.087-8.086-.382 7.89zm-14.277 1.472L16.284 33.203 38.258 11.23a18.618 18.618 0 0 1 13.25-5.487c1.993 0 3.95.31 5.828.924a18.784 18.784 0 0 1-4.565 19.076L30.798 47.716zm16.766-36.895c-1.5 0-2.912.584-3.973 1.646a5.623 5.623 0 0 0 0 7.944 5.582 5.582 0 0 0 3.973 1.646c1.5 0 2.911-.585 3.972-1.646a5.623 5.623 0 0 0 0-7.944 5.58 5.58 0 0 0-3.972-1.646zm1.324 6.942a1.862 1.862 0 0 1-1.324.549 1.875 1.875 0 0 1 0-3.746 1.875 1.875 0 0 1 1.324 3.197zM2 48.89l4.245-4.244 2.648 2.648-4.245 4.244L2 48.89zM15.108 62l-2.648-2.65 4.245-4.244 2.648 2.649-4.245 4.245zm-9.985-5.96l6.258-6.257 2.649 2.648-6.258 6.258-2.649-2.648z"/></svg></svg>