<svg width="61" height="59" xmlns="http://www.w3.org/2000/svg" xmlns:xlink="http://www.w3.org/1999/xlink" xmlns:svgjs="http://svgjs.com/svgjs" viewBox="0 0.019 61 58.961"><svg xmlns="http://www.w3.org/2000/svg" width="61" height="59" viewBox="1.997 1.999 60.005 58" fill="#ff0"><path fill="#FFFF00" paint-order="stroke fill markers" fill-rule="evenodd" d="M61.343 35.546c-1.322-5.011-4.484-9.2-8.906-11.794-.453-.266-.917-.51-1.388-.737.042-.525.065-1.057.065-1.594C51.114 10.711 42.539 2 32 2c-10.54 0-19.114 8.713-19.114 19.422 0 .537.023 1.068.065 1.594-.471.227-.935.47-1.389.737-4.421 2.594-7.584 6.783-8.905 11.794a19.568 19.568 0 0 0 1.91 14.738c3.404 5.992 9.753 9.714 16.568 9.714A18.882 18.882 0 0 0 32 56.541a18.883 18.883 0 0 0 10.865 3.458c6.815 0 13.164-3.723 16.568-9.715a19.568 19.568 0 0 0 1.91-14.738zM16.597 21.42c0-8.63 6.91-15.652 15.403-15.652s15.403 7.022 15.403 15.652c0 .094-.002.186-.004.279a18.733 18.733 0 0 0-4.502-.554c-3.95 0-7.743 1.253-10.897 3.472a18.953 18.953 0 0 0-10.897-3.472c-1.52 0-3.032.19-4.503.554-.001-.093-.003-.185-.003-.279zM32 51.652c-2.986-3.029-4.582-7.16-4.516-11.356a18.816 18.816 0 0 0 9.032 0c.066 4.195-1.53 8.327-4.516 11.356zm0-14.578a15.13 15.13 0 0 1-4.002-.537c.34-1.298.851-2.573 1.543-3.791A15.543 15.543 0 0 1 32 29.5a15.538 15.538 0 0 1 2.458 3.246 15.782 15.782 0 0 1 1.543 3.79 15.13 15.13 0 0 1-4.001.538zm-7.462-1.964a15.683 15.683 0 0 1-7.421-9.654 15.059 15.059 0 0 1 3.986-.538c2.844 0 5.587.805 7.952 2.251a19.253 19.253 0 0 0-2.727 3.692 19.563 19.563 0 0 0-1.79 4.25zm13.134-4.249a19.262 19.262 0 0 0-2.727-3.692 15.246 15.246 0 0 1 7.952-2.251c1.348 0 2.689.182 3.986.539a15.683 15.683 0 0 1-7.42 9.653 19.558 19.558 0 0 0-1.791-4.249zM21.135 56.227c-5.494 0-10.612-2.999-13.355-7.828A15.771 15.771 0 0 1 6.24 36.521c1.065-4.037 3.614-7.414 7.177-9.503.079-.046.159-.09.238-.135 1.544 5.346 5.295 9.743 10.177 12.097-.434 5.474 1.438 10.974 5.222 15.006l-.234.142a15.21 15.21 0 0 1-7.686 2.1zM56.22 48.4c-2.744 4.83-7.861 7.828-13.356 7.828a15.21 15.21 0 0 1-7.685-2.099l-.235-.142c3.785-4.032 5.657-9.532 5.222-15.006 4.883-2.354 8.633-6.75 10.177-12.097.08.045.16.089.239.135 3.563 2.09 6.112 5.466 7.176 9.503A15.771 15.771 0 0 1 56.22 48.4z"/></svg></svg>