<svg width="61" height="61" xmlns="http://www.w3.org/2000/svg" xmlns:xlink="http://www.w3.org/1999/xlink" xmlns:svgjs="http://svgjs.com/svgjs" viewBox="0.005 0 60.99 61"><svg xmlns="http://www.w3.org/2000/svg" width="61" height="61" viewBox="2.999 2.995 59.994 60.004" fill="#ff0"><path fill="#FFFF00" paint-order="stroke fill markers" fill-rule="evenodd" d="M53.589 45.424l-7.298-1.747-8.134-8.142 6.267-6.265c1.456.51 2.969.76 4.475.76 3.523 0 7.003-1.367 9.591-3.954 4.007-4.003 5.093-10.141 2.703-15.274l-1.109-2.379-6.597 6.588-3.063-3.062 6.599-6.589-2.388-1.11C49.5 1.862 43.36 2.947 39.355 6.95c-3.693 3.69-4.905 9.196-3.198 14.054L33.69 23.47 15.521 5.283a7.144 7.144 0 0 0-5.09-2.118h-.008a7.157 7.157 0 0 0-5.094 2.11 7.171 7.171 0 0 0-2.112 5.105 7.17 7.17 0 0 0 2.113 5.1l18.165 18.182-2.47 2.47c-4.862-1.708-10.372-.498-14.067 3.193-4.007 4.004-5.093 10.142-2.702 15.274l1.108 2.38 6.597-6.588 3.063 3.06-6.599 6.59 2.389 1.11a13.467 13.467 0 0 0 5.687 1.256c3.523 0 7.003-1.368 9.592-3.954 3.694-3.691 4.905-9.198 3.199-14.056l6.262-6.26 8.137 8.144 1.744 7.304L54.84 63l8.154-8.162-9.404-9.413zM39.986 20.666a9.868 9.868 0 0 1 1.968-11.111 9.902 9.902 0 0 1 8.438-2.775l-5.175 5.169 8.27 8.262 5.178-5.171a9.875 9.875 0 0 1-2.773 8.43 9.897 9.897 0 0 1-11.131 1.967l-1.166-.543-4.242 4.242-3.061-3.064 4.239-4.238-.545-1.168zM6.895 10.378A3.51 3.51 0 0 1 7.928 7.88a3.503 3.503 0 0 1 2.495-1.033c.945 0 1.83.369 2.494 1.036l23.834 23.854-4.992 4.99L7.93 12.877a3.517 3.517 0 0 1-1.035-2.499zm16.6 45.468a9.9 9.9 0 0 1-8.439 2.775l5.175-5.168-8.27-8.263-5.178 5.172a9.875 9.875 0 0 1 2.774-8.43 9.893 9.893 0 0 1 11.13-1.967l1.166.542 4.243-4.241 3.06 3.063-4.238 4.238.544 1.169a9.866 9.866 0 0 1-1.968 11.11zm25.276-4.128l-.927-3.884 3.88.928 6.068 6.075-2.953 2.955-6.068-6.074z"/></svg></svg>