<svg width="14" height="21" xmlns="http://www.w3.org/2000/svg" xmlns:xlink="http://www.w3.org/1999/xlink" xmlns:svgjs="http://svgjs.com/svgjs" viewBox="0.175 0 13.65 21"><svg xmlns="http://www.w3.org/2000/svg" width="14" height="21" viewBox="2 2 13 20" fill="#4da7ff"><path fill="#4DA7FF" paint-order="stroke fill markers" fill-rule="evenodd" d="M14.825 17.285a.342.342 0 0 0-.342.015c-.944.599-1.9.903-2.84.903-.512 0-.953-.111-1.35-.342-.269-.153-.447-.348-.543-.597-.074-.192-.163-.703-.163-2.048v-4.641h4.416a.328.328 0 0 0 .334-.322v-3.04a.328.328 0 0 0-.334-.322H9.587v-4.57A.328.328 0 0 0 9.254 2H6.405a.33.33 0 0 0-.33.283c-.123.956-.348 1.75-.669 2.36a5.024 5.024 0 0 1-1.269 1.563c-.523.431-1.164.768-1.906 1A.324.324 0 0 0 2 7.513v2.74c0 .178.15.322.334.322h1.88v6.466c0 .936.101 1.637.31 2.144.21.513.59 1 1.125 1.446.529.439 1.173.781 1.914 1.017.732.233 1.583.352 2.53.352.829 0 1.611-.082 2.326-.244.716-.162 1.52-.445 2.39-.843a.32.32 0 0 0 .19-.292V17.57a.32.32 0 0 0-.174-.284z"/></svg></svg>