<svg width="16" height="13" xmlns="http://www.w3.org/2000/svg" xmlns:xlink="http://www.w3.org/1999/xlink" xmlns:svgjs="http://svgjs.com/svgjs" viewBox="0 0.1 16 12.799"><svg xmlns="http://www.w3.org/2000/svg" width="16" height="13" viewBox="2 1.998 15 12" fill="#8799a3"><path fill="#FFFFFF" paint-order="stroke fill markers" fill-rule="evenodd" d="M16.586 2.22c-.595.346-1.254.6-1.955.735a3.09 3.09 0 0 0-2.246-.957c-1.7 0-3.077 1.357-3.077 3.03 0 .236.027.468.08.69A8.782 8.782 0 0 1 3.044 2.55a2.974 2.974 0 0 0-.416 1.523c0 1.053.543 1.98 1.368 2.523a3.103 3.103 0 0 1-1.394-.381v.038c0 1.468 1.061 2.692 2.468 2.972a3.117 3.117 0 0 1-1.39.05 3.078 3.078 0 0 0 2.874 2.106 6.241 6.241 0 0 1-3.821 1.296c-.249 0-.493-.015-.734-.041a8.818 8.818 0 0 0 4.717 1.36c5.66 0 8.755-4.616 8.755-8.62l-.01-.393A6.141 6.141 0 0 0 17 3.417a6.23 6.23 0 0 1-1.767.479 3.061 3.061 0 0 0 1.353-1.677z"/></svg></svg>