<svg width="21" height="17" xmlns="http://www.w3.org/2000/svg" xmlns:xlink="http://www.w3.org/1999/xlink" xmlns:svgjs="http://svgjs.com/svgjs" viewBox="0 0.1 21 16.799"><svg xmlns="http://www.w3.org/2000/svg" width="21" height="17" viewBox="1.999 1.996 20 15.999" fill="#fff"><path fill="#FFFFFF" paint-order="stroke fill markers" fill-rule="evenodd" d="M21.448 2.292c-.793.462-1.672.8-2.607.982a4.119 4.119 0 0 0-2.994-1.278c-2.267 0-4.104 1.81-4.104 4.04 0 .315.037.624.107.92a11.71 11.71 0 0 1-8.457-4.221 3.966 3.966 0 0 0-.555 2.03c0 1.403.725 2.639 1.825 3.364a4.139 4.139 0 0 1-1.858-.509v.052c0 1.957 1.414 3.589 3.29 3.963a4.147 4.147 0 0 1-1.853.067c.522 1.604 2.037 2.772 3.832 2.807a8.322 8.322 0 0 1-5.095 1.727c-.332 0-.658-.018-.98-.054a11.76 11.76 0 0 0 6.29 1.814c7.547 0 11.674-6.155 11.674-11.495l-.014-.523A8.193 8.193 0 0 0 22 3.89a8.329 8.329 0 0 1-2.355.637 4.082 4.082 0 0 0 1.804-2.235z"/></svg></svg>