<svg width="15" height="10" xmlns="http://www.w3.org/2000/svg" xmlns:xlink="http://www.w3.org/1999/xlink" xmlns:svgjs="http://svgjs.com/svgjs" viewBox="0 0.178 15 9.644"><svg xmlns="http://www.w3.org/2000/svg" width="15" height="10" viewBox="1 1.998 14 9.001" fill="#464646"><path fill="#464646" paint-order="stroke fill markers" fill-rule="evenodd" d="M14.658 8.304l-5.84-5.966A1.14 1.14 0 0 0 8 1.998a1.09 1.09 0 0 0-.809.34l-5.85 5.966a1.15 1.15 0 0 0-.34.835c0 .33.113.605.34.824l.674.688c.216.233.486.349.809.349.324 0 .593-.117.809-.35L8 6.207l4.367 4.445c.216.232.485.349.809.349.317 0 .59-.117.817-.35l.674-.687c.222-.225.333-.5.333-.824a1.15 1.15 0 0 0-.342-.835z"/></svg></svg>