<svg width="29" height="21" xmlns="http://www.w3.org/2000/svg" xmlns:xlink="http://www.w3.org/1999/xlink" xmlns:svgjs="http://svgjs.com/svgjs" viewBox="0 0.142 29 20.715"><svg xmlns="http://www.w3.org/2000/svg" width="29" height="21" viewBox="1.988 1.996 28.004 20.004" fill="#4da7ff"><path fill="#4DA7FF" paint-order="stroke fill markers" fill-rule="evenodd" d="M29.869 7.328c-.17-2.85-2.659-5.205-5.548-5.247l-3.893-.058a362.646 362.646 0 0 0-8.864 0l-3.974.059c-2.894.041-5.361 2.4-5.502 5.258l-.011.23c-.12 2.429-.12 6.38 0 8.808l.011.235c.14 2.853 2.607 5.22 5.498 5.277l3.983.075c1.214.023 2.813.035 4.413.035 1.615 0 3.232-.012 4.458-.035l3.885-.075c2.887-.055 5.374-2.417 5.544-5.266l.014-.239c.145-2.432.145-6.39 0-8.822l-.014-.235zm-1.75 8.955l-.014.238c-.116 1.926-1.862 3.585-3.814 3.622l-3.885.076c-2.42.045-6.381.046-8.803 0l-3.982-.076c-1.98-.039-3.671-1.66-3.767-3.615l-.011-.234c-.117-2.381-.117-6.258 0-8.64l.01-.23C3.95 5.47 5.639 3.857 7.618 3.828l3.974-.059c1.196-.018 2.77-.027 4.348-.027 1.616 0 3.236.01 4.463.028l3.892.057c1.984.028 3.693 1.645 3.81 3.603l.015.236c.142 2.376.142 6.24 0 8.617zm-7.434-5.34L13.692 7.3a.89.89 0 0 0-.869.025.875.875 0 0 0-.427.748v7.288c0 .306.162.59.427.748a.893.893 0 0 0 .869.025l6.993-3.644a.872.872 0 0 0 .472-.773.873.873 0 0 0-.472-.773zm-6.522 2.97V9.52l4.215 2.196-4.215 2.197z"/></svg></svg>